<svg width="16" height="16" viewBox="0 0 16 16" fill="none" xmlns="http://www.w3.org/2000/svg">
<path d="M11.0021 8.02172C11.0029 8.15271 10.9777 8.28255 10.9279 8.40381C10.8781 8.52507 10.8048 8.63536 10.7121 8.72836L6.71214 12.7094C6.6189 12.8022 6.50821 12.8758 6.38639 12.926C6.26457 12.9762 6.134 13.0021 6.00214 13.0021C5.87028 13.0021 5.73971 12.9762 5.61789 12.926C5.49607 12.8758 5.38538 12.8022 5.29214 12.7094C5.1989 12.6166 5.12494 12.5064 5.07448 12.3852C5.02402 12.2639 4.99805 12.134 4.99805 12.0028C4.99805 11.8715 5.02402 11.7416 5.07448 11.6203C5.12494 11.4991 5.1989 11.3889 5.29214 11.2961L8.60214 8.02172L5.42214 4.73737C5.31985 4.64581 5.23764 4.53424 5.18065 4.40962C5.12367 4.285 5.09313 4.15002 5.09095 4.01312C5.08877 3.87622 5.115 3.74034 5.16799 3.61398C5.22098 3.48763 5.2996 3.37352 5.39892 3.27879C5.49824 3.18405 5.61614 3.11073 5.74523 3.06341C5.87433 3.0161 6.01184 2.9958 6.14918 3.00379C6.28652 3.01178 6.42072 3.04788 6.5434 3.10985C6.66607 3.17181 6.77458 3.2583 6.86214 3.36391L10.7221 7.34495C10.8985 7.52695 10.9986 7.76892 11.0021 8.02172Z" fill="black"/>
</svg>
