<svg width="16" height="16" viewBox="0 0 16 16" fill="none" xmlns="http://www.w3.org/2000/svg">
<path d="M4.99786 7.97828C4.9971 7.84729 5.02233 7.71745 5.07209 7.59619C5.12186 7.47493 5.19518 7.36464 5.28786 7.27164L9.28786 3.29061C9.3811 3.19781 9.49179 3.1242 9.61361 3.07398C9.73543 3.02376 9.866 2.99791 9.99786 2.99791C10.1297 2.99791 10.2603 3.02376 10.3821 3.07398C10.5039 3.1242 10.6146 3.19781 10.7079 3.29061C10.8011 3.3834 10.8751 3.49357 10.9255 3.61481C10.976 3.73606 11.002 3.86601 11.002 3.99724C11.002 4.12847 10.976 4.25842 10.9255 4.37967C10.8751 4.50091 10.8011 4.61108 10.7079 4.70387L7.39786 7.97828L10.5779 11.2626C10.6802 11.3542 10.7624 11.4658 10.8193 11.5904C10.8763 11.715 10.9069 11.85 10.909 11.9869C10.9112 12.1238 10.885 12.2597 10.832 12.386C10.779 12.5124 10.7004 12.6265 10.6011 12.7212C10.5018 12.8159 10.3839 12.8893 10.2548 12.9366C10.1257 12.9839 9.98816 13.0042 9.85082 12.9962C9.71348 12.9882 9.57928 12.9521 9.4566 12.8902C9.33393 12.8282 9.22542 12.7417 9.13786 12.6361L5.27786 8.65505C5.10155 8.47305 5.00144 8.23108 4.99786 7.97828Z" fill="black"/>
</svg>
