<svg width="29" height="22" viewBox="0 0 29 22" fill="none" xmlns="http://www.w3.org/2000/svg">
<path fill-rule="evenodd" clip-rule="evenodd" d="M12.2032 20.6938C12.1915 20.5104 12.1857 20.3958 12.1857 20.35L12.1505 20.118L12.0275 19.9633L11.8868 19.8687L11.6847 19.8172L11.4826 19.8H5.9985C5.2251 19.8 4.56303 19.5307 4.01228 18.9922C3.46153 18.4536 3.18615 17.8062 3.18615 17.05V4.95C3.18615 4.19375 3.46153 3.54635 4.01228 3.00781C4.56303 2.46927 5.2251 2.2 5.9985 2.2H11.6232C11.7755 2.2 11.8956 2.16276 11.9835 2.08828C12.0714 2.0138 12.13 1.90208 12.1593 1.75312C12.1886 1.60417 12.2062 1.46953 12.212 1.34922C12.2179 1.22891 12.215 1.07708 12.2032 0.89375C12.1915 0.710417 12.1857 0.595833 12.1857 0.55C12.1857 0.401042 12.13 0.272135 12.0187 0.163281C11.9074 0.0544271 11.7755 0 11.6232 0H5.9985C4.60404 0 3.41173 0.484115 2.42155 1.45234C1.43137 2.42057 0.936279 3.58646 0.936279 4.95V17.05C0.936279 18.4135 1.43137 19.5794 2.42155 20.5477C3.41173 21.5159 4.60404 22 5.9985 22H11.6232C11.7755 22 11.8956 21.9628 11.9835 21.8883C12.0714 21.8138 12.13 21.7021 12.1593 21.5531C12.1886 21.4042 12.2062 21.2695 12.212 21.1492C12.2179 21.0289 12.215 20.8771 12.2032 20.6938ZM28.1632 11.7735C28.3858 11.5558 28.4972 11.298 28.4972 11C28.4972 10.7021 28.3858 10.4443 28.1632 10.2266L18.6012 0.876611C18.3786 0.658903 18.1149 0.550049 17.8102 0.550049C17.5056 0.550049 17.2419 0.658903 17.0193 0.876611C16.7966 1.09432 16.6853 1.35213 16.6853 1.65005V6.60005H8.81074C8.50607 6.60005 8.24242 6.7089 8.01977 6.92661C7.79713 7.14432 7.68581 7.40213 7.68581 7.70005V14.3C7.68581 14.598 7.79713 14.8558 8.01977 15.0735C8.24242 15.2912 8.50607 15.4 8.81074 15.4H16.6853V20.35C16.6853 20.648 16.7966 20.9058 17.0193 21.1235C17.2419 21.3412 17.5056 21.45 17.8102 21.45C18.1149 21.45 18.3786 21.3412 18.6012 21.1235L28.1632 11.7735Z" fill="black"/>
</svg>
