<svg width="25" height="15" viewBox="0 0 25 15" fill="none" xmlns="http://www.w3.org/2000/svg">
<path d="M24.618 4.77353C24.3582 4.46182 23.9926 4.2833 23.6148 4.2833H23.0469V3.82471C23.0469 3.00088 22.3312 2.33018 21.452 2.33018H20.7031V1.48369C20.7031 1.08525 20.5332 0.696582 20.2375 0.416894C19.6492 -0.138965 18.6324 -0.138965 18.0441 0.416894C17.748 0.696973 17.5781 1.08564 17.5781 1.48408V5.45557H7.42188V1.48408C7.42188 1.08564 7.25234 0.696973 6.95625 0.417285C6.36797 -0.138574 5.35117 -0.138574 4.76289 0.417285C4.4668 0.696973 4.29688 1.08564 4.29688 1.48408V2.33057H3.45703C3.06211 2.33057 2.68867 2.47314 2.40508 2.73213C2.11797 2.9958 1.95312 3.36377 1.95312 3.74111V4.2833H1.39062C1.01094 4.2833 0.64375 4.4626 0.383203 4.77549C0.136328 5.07236 0 5.4626 0 5.87393V8.16142C0 8.57275 0.136328 8.96299 0.383594 9.25986C0.644141 9.57275 1.01133 9.75205 1.39062 9.75205H1.95312V10.2942C1.95312 10.6716 2.11797 11.0396 2.40586 11.304C2.68867 11.5626 3.06211 11.7052 3.45703 11.7052H4.29688V12.5517C4.29688 12.9501 4.4668 13.3388 4.7625 13.6181C5.05664 13.8958 5.44609 14.0489 5.85938 14.0489C6.27266 14.0489 6.66211 13.8958 6.95625 13.6181C7.25234 13.3384 7.42188 12.9497 7.42188 12.5517V8.58017H17.5781V12.5517C17.5781 12.9501 17.748 13.3388 18.0438 13.6181C18.3379 13.8958 18.7273 14.0489 19.1406 14.0489C19.5539 14.0489 19.9434 13.8958 20.2375 13.6181C20.5332 13.3384 20.7031 12.9497 20.7031 12.5517V11.7052H21.452C22.3312 11.7052 23.0469 11.0349 23.0469 10.2106V9.75205H23.6148C23.9926 9.75205 24.3582 9.57314 24.6184 9.26182C24.8645 8.96611 25.0004 8.57783 25.0004 8.16807V5.86768C25 5.45791 24.8645 5.06924 24.618 4.77353ZM1.39062 8.9708C1.2418 8.9708 1.09727 8.8958 0.983984 8.75986C0.855078 8.60557 0.78125 8.38721 0.78125 8.16142V5.87393C0.78125 5.64814 0.855078 5.43018 0.983984 5.27549C1.09727 5.13955 1.2418 5.06455 1.39062 5.06455H1.95312V8.9708H1.39062ZM3.45703 10.9239C3.26055 10.9239 3.06953 10.8524 2.93398 10.7282C2.80508 10.6099 2.73438 10.456 2.73438 10.2942V9.36142V4.67393V3.74111C2.73438 3.57939 2.80508 3.4251 2.9332 3.30752C3.06992 3.18291 3.26055 3.11143 3.45703 3.11143H4.29688V10.9239H3.45703ZM6.64062 12.5517C6.64062 12.7388 6.56211 12.9157 6.41992 13.0501C6.12695 13.3267 5.59219 13.3267 5.29922 13.0501C5.15664 12.9157 5.07812 12.7384 5.07812 12.5517V11.3145V2.7208V1.48369C5.07812 1.29658 5.15664 1.11963 5.29883 0.985254C5.44531 0.846973 5.64961 0.767676 5.85938 0.767676C6.06914 0.767676 6.27344 0.846973 6.41992 0.985254C6.56211 1.11963 6.64062 1.29697 6.64062 1.48408V5.84619V8.18994V12.5517ZM7.42188 7.79892V6.23643H17.5781V7.79892H7.42188ZM19.9219 12.5517C19.9219 12.7388 19.8434 12.9157 19.7012 13.0501C19.4082 13.3267 18.8734 13.3267 18.5805 13.0501C18.4379 12.9157 18.3594 12.7384 18.3594 12.5517V8.18955V5.8458V1.48408C18.3594 1.29697 18.4379 1.12002 18.5801 0.985645C18.7266 0.847364 18.9309 0.768066 19.1406 0.768066C19.3504 0.768066 19.5547 0.847364 19.7012 0.985645C19.8434 1.11963 19.9219 1.29697 19.9219 1.48408V2.72119V11.3149V12.5517ZM22.2656 10.2106C22.2656 10.604 21.9008 10.9239 21.452 10.9239H20.7031V3.11143H21.452C21.9004 3.11143 22.2656 3.43135 22.2656 3.82471V4.67393V9.36142V10.2106ZM24.2188 8.16767C24.2188 8.39189 24.1453 8.60791 24.018 8.76143C23.9055 8.89658 23.7621 8.9708 23.6148 8.9708H23.0469V5.06455H23.6148C23.7621 5.06455 23.9055 5.13877 24.018 5.27393C24.1457 5.42705 24.2188 5.64346 24.2188 5.86768V8.16767Z" fill="#6E41E2"/>
</svg>
