<svg width="23" height="25" viewBox="0 0 23 25" fill="none" xmlns="http://www.w3.org/2000/svg">
<path d="M21.8633 12.7615C21.5282 10.4167 20.0951 3.38243 18.6837 2.67652C18.5565 2.61294 18.361 2.5064 18.1142 2.37232C15.1534 0.762895 12.2297 -0.605514 10.9075 0.277153C9.88244 0.960747 9.00261 2.55167 8.8612 3.97803C8.77912 4.80684 8.95705 5.46602 9.37561 5.88458C10.2929 6.8024 13.3567 6.42178 14.9716 6.14297C14.8634 6.65377 14.6304 7.52081 14.1274 8.77769C13.3202 10.7958 13.7553 13.9549 13.9888 15.2913H12.9401C12.1247 13.5905 11.0005 12.7154 9.59533 12.4358C6.82199 11.882 3.90246 14.1979 3.2177 14.8053H1.45803C1.18943 14.8053 0.972093 15.0229 0.972093 15.2913C0.972093 15.5596 1.18943 15.7772 1.45803 15.7772H3.40183C3.5238 15.7772 3.64148 15.7155 3.73117 15.6329C3.76106 15.6051 6.78928 12.8435 9.40788 13.366C10.5701 13.598 11.5073 14.4817 12.1936 15.969C12.2733 16.1413 12.4456 16.2631 12.6349 16.2631H14.5787C14.7263 16.2631 14.8654 16.1805 14.9579 16.0654C15.05 15.9506 15.0851 15.7921 15.0533 15.6483C15.0438 15.6061 14.1241 11.3911 15.03 9.12696C16.0081 6.68082 16.0366 5.65196 16.0366 5.54283C16.0366 5.39737 15.9711 5.25826 15.8586 5.16597C15.7466 5.07393 15.5986 5.03643 15.4552 5.0649C13.2409 5.50694 10.5492 5.68326 10.0628 5.19752C9.86296 4.99771 9.77756 4.58804 9.82834 4.07364C9.94177 2.92759 10.6527 1.6149 11.4466 1.08575C12.1229 0.634916 14.2105 1.35621 17.6501 3.22618C17.9096 3.36714 18.1152 3.47886 18.2442 3.54317C18.9091 3.96338 20.3489 9.03458 20.9008 12.8989C21.3122 15.7778 21.0085 20.1522 20.9203 21.2676C19.2555 22.0933 8.93469 26.8252 0.745677 21.6523C0.518382 21.5096 0.218919 21.577 0.0751207 21.8036C-0.0681898 22.0307 -0.000318838 22.3309 0.226488 22.4742C3.20769 24.3568 6.4447 25.0001 9.4781 24.9998C15.9744 24.9996 21.5325 22.0485 21.6136 22.0046C21.7565 21.927 21.8514 21.7832 21.8661 21.6212C21.8861 21.4009 22.3516 16.1802 21.8633 12.7615Z" fill="#6E41E2"/>
</svg>
